<svg xmlns="http://www.w3.org/2000/svg" width="1920" height="1080" viewBox="0 0 1920 1080" role="img" aria-labelledby="title desc">
  <title id="title">Урок 1.1, слайд 03 — Почему тема важна?</title>
  <desc id="desc">Единая инфографика JEMIX Academy: источник воды, красный насос и система дома.</desc>
  <defs>
    <style>
      .h1{font:700 66px Arial,sans-serif;fill:#111827}.h2{font:700 34px Arial,sans-serif;fill:#111827}
      .body{font:400 30px Arial,sans-serif;fill:#303640}.label{font:700 25px Arial,sans-serif;fill:#111827}
      .small{font:400 23px Arial,sans-serif;fill:#303640}.red{fill:#e30613}.red-stroke{stroke:#e30613}
      .gray{stroke:#9aa1aa}.line{fill:none;stroke-width:5;stroke-linecap:round;stroke-linejoin:round}
    </style>
    <filter id="shadow" x="-30%" y="-30%" width="160%" height="160%"><feDropShadow dx="0" dy="12" stdDeviation="14" flood-opacity=".14"/></filter>
    <marker id="arrow" viewBox="0 0 10 10" refX="8" refY="5" markerWidth="9" markerHeight="9" orient="auto-start-reverse"><path d="M0 0 10 5 0 10Z" fill="#e30613"/></marker>
  </defs>
  <rect width="1920" height="1080" fill="#fff"/>
  <rect x="58" y="48" width="116" height="116" rx="18" class="red"/>
  <text x="116" y="126" text-anchor="middle" font-family="Arial" font-size="58" font-weight="700" fill="#fff">03</text>
  <text x="212" y="128" class="h1">Почему тема важна?</text>

  <text x="92" y="266" class="body">Насосное оборудование — основа</text>
  <text x="92" y="318" class="body">водоснабжения и отопления.</text>
  <text x="92" y="398" class="body">Понимание принципов работы помогает</text>
  <text x="92" y="450" class="body">правильно подобрать оборудование</text>
  <text x="92" y="502" class="body">и избежать ошибок.</text>

  <circle cx="790" cy="500" r="185" fill="#fafafa" stroke="#d9dde3" stroke-width="4"/>
  <text x="790" y="278" text-anchor="middle" class="label">ИСТОЧНИК ВОДЫ</text>
  <path d="M690 557 Q735 525 780 557 T870 557 T950 557" fill="none" stroke="#53a9e8" stroke-width="7"/>
  <path d="M690 595 Q735 563 780 595 T870 595 T950 595" fill="none" stroke="#53a9e8" stroke-width="7" opacity=".8"/>
  <rect x="776" y="368" width="28" height="202" rx="10" fill="#cfd4da" stroke="#4b5563" stroke-width="4"/>
  <rect x="770" y="528" width="40" height="86" rx="12" fill="#56aee8" stroke="#2f6f9f" stroke-width="4"/>
  <line x1="972" y1="500" x2="1110" y2="500" class="line red-stroke" marker-end="url(#arrow)"/>

  <g transform="translate(1115 325)" filter="url(#shadow)">
    <rect x="186" y="96" width="242" height="178" rx="38" fill="#e30613" stroke="#a80008" stroke-width="5"/>
    <rect x="392" y="114" width="84" height="142" rx="28" fill="#d30712" stroke="#a80008" stroke-width="5"/>
    <circle cx="164" cy="185" r="116" fill="#ed101d" stroke="#a80008" stroke-width="6"/>
    <circle cx="164" cy="185" r="68" fill="#d4d7db" stroke="#525963" stroke-width="6"/>
    <circle cx="164" cy="185" r="42" fill="#15191d"/>
    <path d="M136 94 C170 46 226 42 260 82 L260 118 L205 118 C195 97 167 91 136 106Z" fill="#e30613" stroke="#a80008" stroke-width="5"/>
    <rect x="252" y="38" width="146" height="70" rx="14" fill="#ef1c26" stroke="#a80008" stroke-width="5"/>
    <g stroke="#8f0007" stroke-width="6"><line x1="230" y1="126" x2="230" y2="254"/><line x1="262" y1="120" x2="262" y2="258"/><line x1="294" y1="120" x2="294" y2="258"/><line x1="326" y1="120" x2="326" y2="258"/><line x1="358" y1="120" x2="358" y2="258"/></g>
    <rect x="118" y="286" width="338" height="34" rx="10" fill="#a80008"/>
    <rect x="150" y="270" width="64" height="48" rx="8" fill="#c8000a"/><rect x="365" y="270" width="64" height="48" rx="8" fill="#c8000a"/>
  </g>
  <text x="1345" y="278" text-anchor="middle" class="label">НАСОС</text>
  <text x="1345" y="820" text-anchor="middle" class="small">создаёт напор и перемещает воду</text>
  <line x1="1578" y1="500" x2="1700" y2="500" class="line red-stroke" marker-end="url(#arrow)"/>

  <g transform="translate(1640 275)">
    <path d="M25 188 L160 54 L295 188 V444 H25Z" fill="#fff" stroke="#111827" stroke-width="6"/>
    <path d="M-6 205 L160 38 L326 205" fill="none" stroke="#111827" stroke-width="7"/>
    <g fill="none" stroke="#e30613" stroke-width="6" stroke-linecap="round" stroke-linejoin="round">
      <path d="M66 242 v82 h48 v-82"/><path d="M75 242 q15-34 30 0"/><line x1="84" y1="266" x2="84" y2="305"/><line x1="96" y1="266" x2="96" y2="305"/>
      <path d="M176 243 h58 v48 h-58z"/><circle cx="205" cy="267" r="12"/>
      <path d="M184 334 h76 v63 h-76z"/><circle cx="222" cy="365" r="22"/>
    </g>
    <g stroke="#111827" stroke-width="6" fill="none"><line x1="82" y1="407" x2="82" y2="362"/><line x1="104" y1="407" x2="104" y2="362"/><line x1="126" y1="407" x2="126" y2="362"/><line x1="148" y1="407" x2="148" y2="362"/><line x1="72" y1="407" x2="158" y2="407"/></g>
  </g>
  <text x="1800" y="278" text-anchor="middle" class="label">СИСТЕМА ДОМА</text>

  <rect x="160" y="900" width="1600" height="112" rx="24" fill="#fff" stroke="#e30613" stroke-width="3"/>
  <circle cx="235" cy="956" r="35" fill="#fff4f4" stroke="#e30613" stroke-width="3"/>
  <path d="M225 958 l12 12 24-30" fill="none" stroke="#e30613" stroke-width="6" stroke-linecap="round" stroke-linejoin="round"/>
  <text x="300" y="947" class="body">Правильное понимание работы насоса помогает подобрать</text>
  <text x="300" y="988" class="h2">надёжное решение и избежать ошибок.</text>
</svg>